<svg width="50" height="50" viewBox="0 0 50 50" fill="none" xmlns="http://www.w3.org/2000/svg">
<rect width="50" height="50" rx="10" fill="url(#paint0_linear_6_5)"/>
<path d="M33.1538 25.1242L27.1093 22.8906L24.8827 16.8414C24.7508 16.4832 24.5123 16.1741 24.1992 15.9557C23.8861 15.7373 23.5136 15.6202 23.1319 15.6202C22.7502 15.6202 22.3777 15.7373 22.0646 15.9557C21.7515 16.1741 21.513 16.4832 21.3811 16.8414L19.1405 22.8906L13.0913 25.1172C12.7331 25.249 12.4239 25.4876 12.2056 25.8007C11.9872 26.1137 11.8701 26.4863 11.8701 26.868C11.8701 27.2497 11.9872 27.6222 12.2056 27.9353C12.4239 28.2483 12.7331 28.4869 13.0913 28.6188L19.1405 30.8594L21.3671 36.9086C21.4989 37.2668 21.7375 37.5759 22.0506 37.7943C22.3636 38.0127 22.7361 38.1298 23.1179 38.1298C23.4996 38.1298 23.8721 38.0127 24.1851 37.7943C24.4982 37.5759 24.7368 37.2668 24.8686 36.9086L27.1093 30.8594L33.1585 28.6328C33.5167 28.501 33.8258 28.2624 34.0442 27.9493C34.2626 27.6363 34.3796 27.2637 34.3796 26.882C34.3796 26.5003 34.2626 26.1278 34.0442 25.8147C33.8258 25.5017 33.5167 25.2631 33.1585 25.1313L33.1538 25.1242ZM26.0546 29.2445C25.9273 29.2914 25.8117 29.3654 25.7158 29.4613C25.62 29.5572 25.546 29.6727 25.4991 29.8L23.1249 36.2324L20.7554 29.8047C20.7085 29.6761 20.6341 29.5593 20.5373 29.4625C20.4406 29.3658 20.3238 29.2914 20.1952 29.2445L13.7675 26.875L20.1952 24.5055C20.3238 24.4586 20.4406 24.3842 20.5373 24.2875C20.6341 24.1907 20.7085 24.0739 20.7554 23.9453L23.1249 17.5176L25.4944 23.9453C25.5413 24.0726 25.6153 24.1881 25.7112 24.284C25.8071 24.3799 25.9226 24.4539 26.0499 24.5008L32.4823 26.875L26.0546 29.2445ZM26.8749 14.6875C26.8749 14.4389 26.9737 14.2004 27.1495 14.0246C27.3253 13.8488 27.5637 13.75 27.8124 13.75H29.6874V11.875C29.6874 11.6264 29.7862 11.3879 29.962 11.2121C30.1378 11.0363 30.3762 10.9375 30.6249 10.9375C30.8735 10.9375 31.112 11.0363 31.2878 11.2121C31.4636 11.3879 31.5624 11.6264 31.5624 11.875V13.75H33.4374C33.686 13.75 33.9245 13.8488 34.1003 14.0246C34.2761 14.2004 34.3749 14.4389 34.3749 14.6875C34.3749 14.9361 34.2761 15.1746 34.1003 15.3504C33.9245 15.5262 33.686 15.625 33.4374 15.625H31.5624V17.5C31.5624 17.7486 31.4636 17.9871 31.2878 18.1629C31.112 18.3387 30.8735 18.4375 30.6249 18.4375C30.3762 18.4375 30.1378 18.3387 29.962 18.1629C29.7862 17.9871 29.6874 17.7486 29.6874 17.5V15.625H27.8124C27.5637 15.625 27.3253 15.5262 27.1495 15.3504C26.9737 15.1746 26.8749 14.9361 26.8749 14.6875ZM39.0624 20.3125C39.0624 20.5611 38.9636 20.7996 38.7878 20.9754C38.612 21.1512 38.3735 21.25 38.1249 21.25H37.1874V22.1875C37.1874 22.4361 37.0886 22.6746 36.9128 22.8504C36.737 23.0262 36.4985 23.125 36.2499 23.125C36.0012 23.125 35.7628 23.0262 35.587 22.8504C35.4112 22.6746 35.3124 22.4361 35.3124 22.1875V21.25H34.3749C34.1262 21.25 33.8878 21.1512 33.712 20.9754C33.5362 20.7996 33.4374 20.5611 33.4374 20.3125C33.4374 20.0639 33.5362 19.8254 33.712 19.6496C33.8878 19.4738 34.1262 19.375 34.3749 19.375H35.3124V18.4375C35.3124 18.1889 35.4112 17.9504 35.587 17.7746C35.7628 17.5988 36.0012 17.5 36.2499 17.5C36.4985 17.5 36.737 17.5988 36.9128 17.7746C37.0886 17.9504 37.1874 18.1889 37.1874 18.4375V19.375H38.1249C38.3735 19.375 38.612 19.4738 38.7878 19.6496C38.9636 19.8254 39.0624 20.0639 39.0624 20.3125Z" fill="white"/>
<defs>
<linearGradient id="paint0_linear_6_5" x1="50" y1="25" x2="-2.22446e-06" y2="25" gradientUnits="userSpaceOnUse">
<stop stop-color="#F472B6"/>
<stop offset="1" stop-color="#C084FC"/>
</linearGradient>
</defs>
</svg>
